<svg xmlns="http://www.w3.org/2000/svg" xmlns:xlink="http://www.w3.org/1999/xlink" width="1080" zoomAndPan="magnify" viewBox="0 0 810 809.999993" height="1080" preserveAspectRatio="xMidYMid meet" version="1.0"><defs><clipPath id="id1"><path d="M 175 245.75 L 629 245.75 L 629 773 L 175 773 Z M 175 245.75 " clip-rule="nonzero"/></clipPath><clipPath id="id2"><path d="M 180 251.691406 L 624 251.691406 L 624 767 L 180 767 Z M 180 251.691406 " clip-rule="nonzero"/></clipPath></defs><rect x="-81" width="972" fill="rgb(100%, 100%, 100%)" y="-80.999999" height="971.999992" fill-opacity="1"/><rect x="-81" width="972" fill="rgb(100%, 100%, 100%)" y="-80.999999" height="971.999992" fill-opacity="1"/><rect x="-81" width="972" fill="rgb(100%, 100%, 100%)" y="-80.999999" height="971.999992" fill-opacity="1"/><g clip-path="url(#id1)"><path fill="rgb(0%, 69.40918%, 78.42865%)" d="M 178.664062 730.976562 C 180.886719 732.039062 183.515625 731.742188 185.441406 730.199219 L 221.40625 701.40625 L 257.367188 730.199219 C 259.710938 732.078125 263.039062 732.078125 265.378906 730.199219 L 301.332031 701.40625 L 337.292969 730.199219 C 339.632812 732.078125 342.960938 732.078125 345.304688 730.199219 L 384.585938 698.738281 C 411.433594 755.359375 475.207031 784.285156 535.429688 767.152344 C 595.65625 750.023438 634.707031 691.847656 627.796875 629.558594 C 620.886719 567.261719 570.042969 519.078125 507.527344 515.59375 L 507.527344 423.277344 L 591.636719 423.277344 C 595.179688 423.277344 598.046875 420.402344 598.046875 416.859375 L 598.046875 297.476562 C 598.019531 269.886719 576.386719 247.167969 548.855469 245.808594 L 548.855469 245.75 L 233.398438 245.75 C 201.179688 245.789062 175.0625 271.929688 175.023438 304.183594 L 175.023438 725.1875 C 175.023438 727.65625 176.4375 729.902344 178.664062 730.976562 Z M 615.753906 643.71875 C 615.753906 707.507812 564.09375 759.210938 500.375 759.214844 C 436.660156 759.214844 385.003906 707.507812 385.003906 643.722656 C 385.003906 579.9375 436.660156 528.226562 500.375 528.226562 C 564.070312 528.300781 615.675781 579.964844 615.753906 643.71875 Z M 585.222656 297.476562 L 585.222656 410.441406 L 507.527344 410.441406 L 507.527344 297.476562 C 507.640625 276.078125 525 258.792969 546.375 258.792969 C 567.757812 258.792969 585.113281 276.078125 585.222656 297.476562 Z M 187.847656 304.183594 C 187.878906 279.011719 208.25 258.617188 233.398438 258.589844 L 512.363281 258.589844 C 501.140625 268.390625 494.707031 282.566406 494.707031 297.476562 L 494.707031 515.523438 C 454.179688 517.316406 416.894531 538.207031 394.171875 571.851562 C 371.453125 605.492188 365.984375 647.914062 379.425781 686.230469 L 377.117188 688.277344 L 341.289062 716.96875 L 305.335938 688.175781 C 303 686.296875 299.664062 686.296875 297.324219 688.175781 L 261.371094 716.96875 L 225.40625 688.175781 C 223.066406 686.296875 219.742188 686.296875 217.394531 688.175781 L 187.847656 711.835938 Z M 187.847656 304.183594 " fill-opacity="1" fill-rule="nonzero"/></g><path fill="rgb(0%, 69.40918%, 78.42865%)" d="M 222.917969 463.402344 L 225.777344 463.402344 C 229.320312 463.402344 232.1875 460.523438 232.1875 456.980469 C 232.1875 453.441406 229.320312 450.5625 225.777344 450.5625 L 222.917969 450.5625 C 219.382812 450.5625 216.507812 453.441406 216.507812 456.980469 C 216.507812 460.523438 219.382812 463.402344 222.917969 463.402344 Z M 222.917969 463.402344 " fill-opacity="1" fill-rule="nonzero"/><path fill="rgb(0%, 69.40918%, 78.42865%)" d="M 254.296875 463.402344 L 275.886719 463.402344 C 279.429688 463.402344 282.300781 460.523438 282.300781 456.980469 C 282.300781 453.441406 279.429688 450.5625 275.886719 450.5625 L 254.296875 450.5625 C 250.757812 450.5625 247.886719 453.441406 247.886719 456.980469 C 247.886719 460.523438 250.757812 463.402344 254.296875 463.402344 Z M 254.296875 463.402344 " fill-opacity="1" fill-rule="nonzero"/><path fill="rgb(0%, 69.40918%, 78.42865%)" d="M 304.867188 463.402344 L 459.632812 463.402344 C 463.171875 463.402344 466.046875 460.523438 466.046875 456.980469 C 466.046875 453.441406 463.171875 450.5625 459.632812 450.5625 L 304.867188 450.5625 C 301.320312 450.5625 298.457031 453.441406 298.457031 456.980469 C 298.457031 460.523438 301.320312 463.402344 304.867188 463.402344 Z M 304.867188 463.402344 " fill-opacity="1" fill-rule="nonzero"/><path fill="rgb(0%, 69.40918%, 78.42865%)" d="M 222.917969 402.441406 L 225.777344 402.441406 C 229.320312 402.441406 232.1875 399.570312 232.1875 396.023438 C 232.1875 392.480469 229.320312 389.609375 225.777344 389.609375 L 222.917969 389.609375 C 219.382812 389.609375 216.507812 392.480469 216.507812 396.023438 C 216.507812 399.570312 219.382812 402.441406 222.917969 402.441406 Z M 222.917969 402.441406 " fill-opacity="1" fill-rule="nonzero"/><path fill="rgb(0%, 69.40918%, 78.42865%)" d="M 254.296875 402.441406 L 275.886719 402.441406 C 279.429688 402.441406 282.300781 399.570312 282.300781 396.023438 C 282.300781 392.480469 279.429688 389.609375 275.886719 389.609375 L 254.296875 389.609375 C 250.757812 389.609375 247.886719 392.480469 247.886719 396.023438 C 247.886719 399.570312 250.757812 402.441406 254.296875 402.441406 Z M 254.296875 402.441406 " fill-opacity="1" fill-rule="nonzero"/><path fill="rgb(0%, 69.40918%, 78.42865%)" d="M 304.867188 402.441406 L 459.632812 402.441406 C 463.171875 402.441406 466.046875 399.570312 466.046875 396.023438 C 466.046875 392.480469 463.171875 389.609375 459.632812 389.609375 L 304.867188 389.609375 C 301.320312 389.609375 298.457031 392.480469 298.457031 396.023438 C 298.457031 399.570312 301.320312 402.441406 304.867188 402.441406 Z M 304.867188 402.441406 " fill-opacity="1" fill-rule="nonzero"/><path fill="rgb(0%, 69.40918%, 78.42865%)" d="M 222.917969 341.492188 L 225.777344 341.492188 C 229.320312 341.492188 232.1875 338.617188 232.1875 335.074219 C 232.1875 331.53125 229.320312 328.65625 225.777344 328.65625 L 222.917969 328.65625 C 219.382812 328.65625 216.507812 331.53125 216.507812 335.074219 C 216.507812 338.617188 219.382812 341.492188 222.917969 341.492188 Z M 222.917969 341.492188 " fill-opacity="1" fill-rule="nonzero"/><path fill="rgb(0%, 69.40918%, 78.42865%)" d="M 254.296875 341.492188 L 275.886719 341.492188 C 279.429688 341.492188 282.300781 338.617188 282.300781 335.074219 C 282.300781 331.53125 279.429688 328.65625 275.886719 328.65625 L 254.296875 328.65625 C 250.757812 328.65625 247.886719 331.53125 247.886719 335.074219 C 247.886719 338.617188 250.757812 341.492188 254.296875 341.492188 Z M 254.296875 341.492188 " fill-opacity="1" fill-rule="nonzero"/><path fill="rgb(0%, 69.40918%, 78.42865%)" d="M 304.867188 341.492188 L 459.632812 341.492188 C 463.171875 341.492188 466.046875 338.617188 466.046875 335.074219 C 466.046875 331.53125 463.171875 328.65625 459.632812 328.65625 L 304.867188 328.65625 C 301.320312 328.65625 298.457031 331.53125 298.457031 335.074219 C 298.457031 338.617188 301.320312 341.492188 304.867188 341.492188 Z M 304.867188 341.492188 " fill-opacity="1" fill-rule="nonzero"/><path fill="rgb(0%, 69.40918%, 78.42865%)" d="M 222.917969 524.359375 L 225.777344 524.359375 C 229.320312 524.359375 232.1875 521.484375 232.1875 517.941406 C 232.1875 514.390625 229.320312 511.523438 225.777344 511.523438 L 222.917969 511.523438 C 219.382812 511.523438 216.507812 514.390625 216.507812 517.941406 C 216.507812 521.484375 219.382812 524.359375 222.917969 524.359375 Z M 222.917969 524.359375 " fill-opacity="1" fill-rule="nonzero"/><path fill="rgb(0%, 69.40918%, 78.42865%)" d="M 254.296875 524.359375 L 275.886719 524.359375 C 279.429688 524.359375 282.300781 521.484375 282.300781 517.941406 C 282.300781 514.390625 279.429688 511.523438 275.886719 511.523438 L 254.296875 511.523438 C 250.757812 511.523438 247.886719 514.390625 247.886719 517.941406 C 247.886719 521.484375 250.757812 524.359375 254.296875 524.359375 Z M 254.296875 524.359375 " fill-opacity="1" fill-rule="nonzero"/><path fill="rgb(0%, 69.40918%, 78.42865%)" d="M 304.867188 524.359375 L 398.742188 524.359375 C 402.285156 524.359375 405.152344 521.484375 405.152344 517.941406 C 405.152344 514.390625 402.285156 511.523438 398.742188 511.523438 L 304.867188 511.523438 C 301.320312 511.523438 298.457031 514.390625 298.457031 517.941406 C 298.457031 521.484375 301.320312 524.359375 304.867188 524.359375 Z M 304.867188 524.359375 " fill-opacity="1" fill-rule="nonzero"/><path fill="rgb(0%, 69.40918%, 78.42865%)" d="M 241.207031 650.648438 C 241.164062 650.648438 241.125 650.640625 241.078125 650.640625 C 241.039062 650.640625 240.996094 650.640625 240.949219 650.648438 C 234.519531 650.570312 229.339844 645.335938 229.332031 638.894531 C 229.332031 635.347656 226.460938 632.476562 222.917969 632.476562 C 219.382812 632.476562 216.507812 635.347656 216.507812 638.894531 C 216.519531 650 223.960938 659.722656 234.667969 662.636719 L 234.667969 667.882812 C 234.667969 671.433594 237.535156 674.300781 241.078125 674.300781 C 244.617188 674.300781 247.488281 671.433594 247.488281 667.882812 L 247.488281 662.636719 C 259.378906 659.414062 267.050781 647.878906 265.429688 635.65625 C 263.808594 623.433594 253.398438 614.300781 241.078125 614.300781 C 234.59375 614.300781 229.332031 609.035156 229.332031 602.542969 C 229.332031 596.050781 234.589844 590.78125 241.074219 590.785156 C 247.558594 590.785156 252.820312 596.050781 252.820312 602.542969 C 252.820312 606.089844 255.691406 608.960938 259.230469 608.960938 C 262.769531 608.960938 265.644531 606.089844 265.644531 602.542969 C 265.628906 591.4375 258.191406 581.71875 247.488281 578.800781 L 247.488281 574.382812 C 247.488281 570.835938 244.617188 567.964844 241.078125 567.964844 C 237.535156 567.964844 234.667969 570.835938 234.667969 574.382812 L 234.667969 578.800781 C 222.773438 582.023438 215.097656 593.558594 216.722656 605.78125 C 218.34375 618.003906 228.753906 627.136719 241.078125 627.136719 C 247.558594 627.101562 252.84375 632.332031 252.882812 638.824219 C 252.921875 645.316406 247.6875 650.609375 241.207031 650.648438 Z M 241.207031 650.648438 " fill-opacity="1" fill-rule="nonzero"/><path fill="rgb(0%, 69.40918%, 78.42865%)" d="M 299.484375 647.132812 L 353.683594 647.132812 C 357.222656 647.132812 360.09375 644.261719 360.09375 640.714844 C 360.09375 637.171875 357.222656 634.300781 353.683594 634.300781 L 299.484375 634.300781 C 295.945312 634.300781 293.074219 637.171875 293.074219 640.714844 C 293.074219 644.261719 295.945312 647.132812 299.484375 647.132812 Z M 299.484375 647.132812 " fill-opacity="1" fill-rule="nonzero"/><path fill="rgb(0%, 69.40918%, 78.42865%)" d="M 446.480469 631.648438 C 444.996094 629.886719 442.6875 629.058594 440.429688 629.476562 C 438.164062 629.890625 436.300781 631.488281 435.539062 633.65625 C 434.773438 635.824219 435.230469 638.242188 436.730469 639.984375 L 472.039062 681.378906 C 474.304688 684.03125 478.257812 684.386719 480.960938 682.1875 L 563.195312 615.21875 C 565.914062 612.972656 566.308594 608.953125 564.085938 606.214844 C 561.867188 603.476562 557.851562 603.054688 555.105469 605.261719 L 477.722656 668.273438 Z M 446.480469 631.648438 " fill-opacity="1" fill-rule="nonzero"/><g clip-path="url(#id2)"><path fill="rgb(0%, 69.40918%, 78.42865%)" d="M 183.660156 725.871094 C 185.832031 726.914062 188.40625 726.621094 190.285156 725.117188 L 225.464844 696.976562 L 260.636719 725.117188 C 262.925781 726.949219 266.183594 726.949219 268.472656 725.117188 L 303.636719 696.976562 L 338.804688 725.117188 C 341.097656 726.949219 344.351562 726.949219 346.644531 725.117188 L 385.0625 694.371094 C 411.324219 749.703125 473.695312 777.96875 532.597656 761.226562 C 591.5 744.484375 629.695312 687.636719 622.9375 626.761719 C 616.179688 565.886719 566.449219 518.800781 505.308594 515.394531 L 505.308594 425.175781 L 587.570312 425.175781 C 591.035156 425.175781 593.839844 422.371094 593.839844 418.902344 L 593.839844 302.242188 C 593.8125 275.277344 572.65625 253.074219 545.730469 251.75 L 545.730469 251.691406 L 237.191406 251.691406 C 205.679688 251.730469 180.136719 277.273438 180.101562 308.796875 L 180.101562 720.21875 C 180.101562 722.628906 181.484375 724.824219 183.660156 725.871094 Z M 611.15625 640.601562 C 611.15625 702.9375 560.632812 753.46875 498.3125 753.472656 C 435.996094 753.472656 385.472656 702.9375 385.472656 640.605469 C 385.472656 578.273438 435.996094 527.738281 498.3125 527.738281 C 560.605469 527.808594 611.082031 578.300781 611.15625 640.601562 Z M 581.296875 302.242188 L 581.296875 412.636719 L 505.308594 412.636719 L 505.308594 302.242188 C 505.417969 281.328125 522.394531 264.4375 543.304688 264.4375 C 564.214844 264.4375 581.191406 281.328125 581.296875 302.242188 Z M 192.644531 308.796875 C 192.671875 284.195312 212.597656 264.265625 237.191406 264.238281 L 510.039062 264.238281 C 499.0625 273.816406 492.765625 287.671875 492.765625 302.242188 L 492.765625 515.324219 C 453.128906 517.078125 416.660156 537.492188 394.441406 570.371094 C 372.21875 603.246094 366.867188 644.703125 380.015625 682.144531 L 377.757812 684.144531 L 342.71875 712.1875 L 307.550781 684.046875 C 305.265625 682.210938 302.003906 682.210938 299.714844 684.046875 L 264.550781 712.1875 L 229.378906 684.046875 C 227.085938 682.210938 223.835938 682.210938 221.539062 684.046875 L 192.644531 707.167969 Z M 192.644531 308.796875 " fill-opacity="1" fill-rule="nonzero"/></g><path fill="rgb(0%, 69.40918%, 78.42865%)" d="M 226.945312 464.386719 L 229.738281 464.386719 C 233.203125 464.386719 236.007812 461.578125 236.007812 458.113281 C 236.007812 454.652344 233.203125 451.84375 229.738281 451.84375 L 226.945312 451.84375 C 223.484375 451.84375 220.671875 454.652344 220.671875 458.113281 C 220.671875 461.578125 223.484375 464.386719 226.945312 464.386719 Z M 226.945312 464.386719 " fill-opacity="1" fill-rule="nonzero"/><path fill="rgb(0%, 69.40918%, 78.42865%)" d="M 257.632812 464.386719 L 278.75 464.386719 C 282.214844 464.386719 285.019531 461.578125 285.019531 458.113281 C 285.019531 454.652344 282.214844 451.84375 278.75 451.84375 L 257.632812 451.84375 C 254.171875 451.84375 251.363281 454.652344 251.363281 458.113281 C 251.363281 461.578125 254.171875 464.386719 257.632812 464.386719 Z M 257.632812 464.386719 " fill-opacity="1" fill-rule="nonzero"/><path fill="rgb(0%, 69.40918%, 78.42865%)" d="M 307.09375 464.386719 L 458.464844 464.386719 C 461.925781 464.386719 464.734375 461.578125 464.734375 458.113281 C 464.734375 454.652344 461.925781 451.84375 458.464844 451.84375 L 307.09375 451.84375 C 303.625 451.84375 300.824219 454.652344 300.824219 458.113281 C 300.824219 461.578125 303.625 464.386719 307.09375 464.386719 Z M 307.09375 464.386719 " fill-opacity="1" fill-rule="nonzero"/><path fill="rgb(0%, 69.40918%, 78.42865%)" d="M 226.945312 404.816406 L 229.738281 404.816406 C 233.203125 404.816406 236.007812 402.007812 236.007812 398.542969 C 236.007812 395.082031 233.203125 392.273438 229.738281 392.273438 L 226.945312 392.273438 C 223.484375 392.273438 220.671875 395.082031 220.671875 398.542969 C 220.671875 402.007812 223.484375 404.816406 226.945312 404.816406 Z M 226.945312 404.816406 " fill-opacity="1" fill-rule="nonzero"/><path fill="rgb(0%, 69.40918%, 78.42865%)" d="M 257.632812 404.816406 L 278.75 404.816406 C 282.214844 404.816406 285.019531 402.007812 285.019531 398.542969 C 285.019531 395.082031 282.214844 392.273438 278.75 392.273438 L 257.632812 392.273438 C 254.171875 392.273438 251.363281 395.082031 251.363281 398.542969 C 251.363281 402.007812 254.171875 404.816406 257.632812 404.816406 Z M 257.632812 404.816406 " fill-opacity="1" fill-rule="nonzero"/><path fill="rgb(0%, 69.40918%, 78.42865%)" d="M 307.09375 404.816406 L 458.464844 404.816406 C 461.925781 404.816406 464.734375 402.007812 464.734375 398.542969 C 464.734375 395.082031 461.925781 392.273438 458.464844 392.273438 L 307.09375 392.273438 C 303.625 392.273438 300.824219 395.082031 300.824219 398.542969 C 300.824219 402.007812 303.625 404.816406 307.09375 404.816406 Z M 307.09375 404.816406 " fill-opacity="1" fill-rule="nonzero"/><path fill="rgb(0%, 69.40918%, 78.42865%)" d="M 226.945312 345.253906 L 229.738281 345.253906 C 233.203125 345.253906 236.007812 342.441406 236.007812 338.980469 C 236.007812 335.519531 233.203125 332.707031 229.738281 332.707031 L 226.945312 332.707031 C 223.484375 332.707031 220.671875 335.519531 220.671875 338.980469 C 220.671875 342.441406 223.484375 345.253906 226.945312 345.253906 Z M 226.945312 345.253906 " fill-opacity="1" fill-rule="nonzero"/><path fill="rgb(0%, 69.40918%, 78.42865%)" d="M 257.632812 345.253906 L 278.75 345.253906 C 282.214844 345.253906 285.019531 342.441406 285.019531 338.980469 C 285.019531 335.519531 282.214844 332.707031 278.75 332.707031 L 257.632812 332.707031 C 254.171875 332.707031 251.363281 335.519531 251.363281 338.980469 C 251.363281 342.441406 254.171875 345.253906 257.632812 345.253906 Z M 257.632812 345.253906 " fill-opacity="1" fill-rule="nonzero"/><path fill="rgb(0%, 69.40918%, 78.42865%)" d="M 307.09375 345.253906 L 458.464844 345.253906 C 461.925781 345.253906 464.734375 342.441406 464.734375 338.980469 C 464.734375 335.519531 461.925781 332.707031 458.464844 332.707031 L 307.09375 332.707031 C 303.625 332.707031 300.824219 335.519531 300.824219 338.980469 C 300.824219 342.441406 303.625 345.253906 307.09375 345.253906 Z M 307.09375 345.253906 " fill-opacity="1" fill-rule="nonzero"/><path fill="rgb(0%, 69.40918%, 78.42865%)" d="M 226.945312 523.960938 L 229.738281 523.960938 C 233.203125 523.960938 236.007812 521.148438 236.007812 517.6875 C 236.007812 514.214844 233.203125 511.414062 229.738281 511.414062 L 226.945312 511.414062 C 223.484375 511.414062 220.671875 514.214844 220.671875 517.6875 C 220.671875 521.148438 223.484375 523.960938 226.945312 523.960938 Z M 226.945312 523.960938 " fill-opacity="1" fill-rule="nonzero"/><path fill="rgb(0%, 69.40918%, 78.42865%)" d="M 257.632812 523.960938 L 278.75 523.960938 C 282.214844 523.960938 285.019531 521.148438 285.019531 517.6875 C 285.019531 514.214844 282.214844 511.414062 278.75 511.414062 L 257.632812 511.414062 C 254.171875 511.414062 251.363281 514.214844 251.363281 517.6875 C 251.363281 521.148438 254.171875 523.960938 257.632812 523.960938 Z M 257.632812 523.960938 " fill-opacity="1" fill-rule="nonzero"/><path fill="rgb(0%, 69.40918%, 78.42865%)" d="M 307.09375 523.960938 L 398.90625 523.960938 C 402.371094 523.960938 405.179688 521.148438 405.179688 517.6875 C 405.179688 514.214844 402.371094 511.414062 398.90625 511.414062 L 307.09375 511.414062 C 303.625 511.414062 300.824219 514.214844 300.824219 517.6875 C 300.824219 521.148438 303.625 523.960938 307.09375 523.960938 Z M 307.09375 523.960938 " fill-opacity="1" fill-rule="nonzero"/><path fill="rgb(0%, 69.40918%, 78.42865%)" d="M 244.828125 647.375 C 244.789062 647.375 244.75 647.367188 244.707031 647.367188 C 244.664062 647.367188 244.625 647.367188 244.578125 647.375 C 238.289062 647.300781 233.222656 642.179688 233.214844 635.886719 C 233.214844 632.421875 230.410156 629.617188 226.945312 629.617188 C 223.484375 629.617188 220.671875 632.421875 220.671875 635.886719 C 220.683594 646.738281 227.960938 656.238281 238.433594 659.089844 L 238.433594 664.214844 C 238.433594 667.683594 241.238281 670.488281 244.707031 670.488281 C 248.167969 670.488281 250.972656 667.683594 250.972656 664.214844 L 250.972656 659.089844 C 262.601562 655.941406 270.105469 644.667969 268.523438 632.726562 C 266.933594 620.777344 256.753906 611.851562 244.707031 611.851562 C 238.363281 611.851562 233.214844 606.710938 233.214844 600.363281 C 233.214844 594.015625 238.355469 588.871094 244.703125 588.875 C 251.042969 588.875 256.1875 594.015625 256.1875 600.363281 C 256.1875 603.828125 258.996094 606.636719 262.460938 606.636719 C 265.921875 606.636719 268.730469 603.828125 268.730469 600.363281 C 268.714844 589.511719 261.441406 580.011719 250.972656 577.164062 L 250.972656 572.84375 C 250.972656 569.378906 248.167969 566.574219 244.707031 566.574219 C 241.238281 566.574219 238.433594 569.378906 238.433594 572.84375 L 238.433594 577.164062 C 226.800781 580.308594 219.292969 591.582031 220.882812 603.527344 C 222.46875 615.472656 232.652344 624.398438 244.707031 624.398438 C 251.042969 624.363281 256.214844 629.476562 256.25 635.820312 C 256.289062 642.164062 251.167969 647.335938 244.828125 647.375 Z M 244.828125 647.375 " fill-opacity="1" fill-rule="nonzero"/><path fill="rgb(0%, 69.40918%, 78.42865%)" d="M 301.828125 643.941406 L 354.835938 643.941406 C 358.296875 643.941406 361.109375 641.132812 361.109375 637.667969 C 361.109375 634.207031 358.296875 631.398438 354.835938 631.398438 L 301.828125 631.398438 C 298.367188 631.398438 295.558594 634.207031 295.558594 637.667969 C 295.558594 641.132812 298.367188 643.941406 301.828125 643.941406 Z M 301.828125 643.941406 " fill-opacity="1" fill-rule="nonzero"/><path fill="rgb(0%, 69.40918%, 78.42865%)" d="M 445.597656 628.804688 C 444.148438 627.085938 441.890625 626.277344 439.679688 626.6875 C 437.46875 627.089844 435.640625 628.648438 434.898438 630.769531 C 434.148438 632.890625 434.59375 635.25 436.0625 636.953125 L 470.597656 677.40625 C 472.8125 679.996094 476.679688 680.34375 479.324219 678.195312 L 559.753906 612.75 C 562.410156 610.554688 562.800781 606.628906 560.625 603.953125 C 558.457031 601.277344 554.527344 600.863281 551.839844 603.019531 L 476.15625 664.597656 Z M 445.597656 628.804688 " fill-opacity="1" fill-rule="nonzero"/></svg>