<svg xmlns="http://www.w3.org/2000/svg" xmlns:xlink="http://www.w3.org/1999/xlink" width="1080" zoomAndPan="magnify" viewBox="0 0 810 809.999993" height="1080" preserveAspectRatio="xMidYMid meet" version="1.0"><defs><clipPath id="id1"><path d="M 199.570312 269.007812 L 610.570312 269.007812 L 610.570312 729.160156 L 199.570312 729.160156 Z M 199.570312 269.007812 " clip-rule="nonzero"/></clipPath></defs><rect x="-81" width="972" fill="rgb(100%, 100%, 100%)" y="-80.999999" height="971.999992" fill-opacity="1"/><rect x="-81" width="972" fill="rgb(100%, 100%, 100%)" y="-80.999999" height="971.999992" fill-opacity="1"/><rect x="-81" width="972" fill="rgb(100%, 100%, 100%)" y="-80.999999" height="971.999992" fill-opacity="1"/><g clip-path="url(#id1)"><path fill="rgb(0%, 69.40918%, 78.42865%)" d="M 582.253906 409.960938 C 568.242188 438.457031 544.085938 463.503906 512.839844 476.171875 L 515.082031 450.390625 C 515.007812 431.230469 499.371094 415.433594 479.542969 415.199219 L 442.566406 418.03125 C 443.289062 358.222656 464.171875 311.316406 499.265625 292.15625 C 521.105469 280.246094 545.253906 281.023438 565.574219 294.332031 C 603.789062 319.359375 601.003906 371.816406 582.253906 409.960938 Z M 438.9375 513.144531 C 433.039062 519.210938 422.488281 519.039062 416.535156 513.058594 C 410.417969 506.84375 410.476562 496.808594 416.664062 490.667969 C 416.984375 490.679688 417.132812 490.847656 417.347656 490.921875 C 426.027344 493.941406 434.503906 496.125 442.792969 497.601562 C 444.007812 501.125 443.074219 508.898438 438.9375 513.144531 Z M 497.53125 481.242188 C 483.621094 484.785156 468.53125 485.859375 452.503906 483.917969 C 451.605469 482.695312 450.707031 481.464844 449.617188 480.371094 C 438.128906 468.683594 417.882812 468.5625 406.230469 480.113281 C 394.230469 492.007812 394.113281 511.464844 406 523.492188 C 411.792969 529.351562 419.535156 532.578125 427.777344 532.578125 C 435.910156 532.578125 443.574219 529.433594 449.371094 523.707031 C 455.199219 517.925781 458.046875 506.648438 458.246094 499.5 C 461.648438 499.75 465.058594 499.941406 468.390625 499.941406 C 478.039062 499.941406 487.285156 498.839844 496.175781 496.957031 C 496.175781 496.957031 493.863281 517.890625 493.125 531.976562 C 492.394531 546.066406 491.578125 557.921875 483.3125 566.113281 L 339.417969 708.546875 C 331.855469 716.023438 318.566406 715.945312 311.113281 708.4375 L 220.164062 616.421875 C 216.425781 612.65625 214.378906 607.621094 214.410156 602.246094 C 214.4375 596.886719 216.523438 591.882812 220.308594 588.148438 L 364.1875 445.726562 C 372.171875 437.828125 386.175781 436.550781 395.449219 436.210938 C 407.320312 435.777344 480.015625 430.023438 480.015625 430.023438 C 491.125 430.175781 500.199219 439.335938 500.269531 449.773438 Z M 573.691406 281.910156 C 549.039062 265.753906 518.570312 264.71875 492.152344 279.125 C 452.023438 301.054688 428.167969 353.277344 427.691406 419.171875 C 427.691406 419.171875 405.445312 421.191406 395.449219 421.367188 C 385.453125 421.546875 366.054688 423.007812 353.75 435.167969 L 209.871094 577.59375 C 203.277344 584.109375 199.628906 592.839844 199.570312 602.167969 C 199.527344 611.511719 203.089844 620.28125 209.609375 626.871094 L 300.570312 718.878906 C 307.144531 725.507812 315.929688 729.160156 325.320312 729.160156 C 334.582031 729.160156 343.292969 725.585938 349.855469 719.105469 L 493.746094 576.664062 C 507.007812 563.53125 506.824219 547.195312 507.9375 532.585938 C 509.054688 517.980469 511.402344 492.808594 511.402344 492.808594 C 549.542969 479.785156 578.964844 450.289062 595.570312 416.519531 C 621.902344 362.953125 612.921875 307.597656 573.691406 281.910156 " fill-opacity="1" fill-rule="nonzero"/></g></svg>