<svg xmlns="http://www.w3.org/2000/svg" xmlns:xlink="http://www.w3.org/1999/xlink" width="1080" zoomAndPan="magnify" viewBox="0 0 810 809.999993" height="1080" preserveAspectRatio="xMidYMid meet" version="1.0"><defs><clipPath id="id1"><path d="M 34.488281 269.769531 L 728.988281 269.769531 L 728.988281 728.753906 L 34.488281 728.753906 Z M 34.488281 269.769531 " clip-rule="nonzero"/></clipPath></defs><rect x="-81" width="972" fill="rgb(100%, 100%, 100%)" y="-80.999999" height="971.999992" fill-opacity="1"/><rect x="-81" width="972" fill="rgb(100%, 100%, 100%)" y="-80.999999" height="971.999992" fill-opacity="1"/><rect x="-81" width="972" fill="rgb(100%, 100%, 100%)" y="-80.999999" height="971.999992" fill-opacity="1"/><rect x="-81" width="972" fill="rgb(100%, 100%, 100%)" y="-80.999999" height="971.999992" fill-opacity="1"/><g clip-path="url(#id1)"><path fill="rgb(0%, 69.40918%, 78.42865%)" d="M 199.683594 427.953125 L 199.683594 379.527344 L 269.261719 379.527344 L 269.261719 357.558594 L 199.683594 357.558594 L 199.683594 291.738281 L 495.285156 291.738281 L 495.285156 565.042969 L 199.683594 565.042969 L 199.683594 520.320312 L 284.917969 520.320312 L 284.917969 498.351562 L 199.683594 498.351562 L 199.683594 449.921875 L 237.960938 449.921875 L 237.960938 427.953125 Z M 517.265625 390.167969 L 614.972656 390.167969 L 707.011719 482.15625 L 707.011719 651.171875 L 691.035156 651.171875 C 685.671875 619.929688 658.4375 596.050781 625.675781 596.050781 C 592.910156 596.050781 565.683594 619.929688 560.320312 651.171875 L 346.363281 651.171875 C 341.003906 619.929688 313.777344 596.050781 281.011719 596.050781 C 248.25 596.050781 221.023438 619.929688 215.65625 651.171875 L 199.683594 651.171875 L 199.683594 587.011719 L 517.265625 587.011719 Z M 625.675781 706.785156 C 601.191406 706.785156 581.273438 686.875 581.273438 662.40625 C 581.273438 637.933594 601.191406 618.019531 625.675781 618.019531 C 650.164062 618.019531 670.082031 637.933594 670.082031 662.40625 C 670.082031 686.875 650.164062 706.785156 625.675781 706.785156 Z M 281.011719 706.785156 C 256.527344 706.785156 236.609375 686.875 236.609375 662.40625 C 236.609375 637.933594 256.527344 618.019531 281.011719 618.019531 C 305.492188 618.019531 325.414062 637.933594 325.414062 662.40625 C 325.414062 686.875 305.492188 706.785156 281.011719 706.785156 Z M 177.703125 498.351562 L 73.621094 498.351562 L 73.621094 520.320312 L 177.703125 520.320312 L 177.703125 673.140625 L 215.574219 673.140625 C 220.734375 704.625 248.070312 728.753906 281.011719 728.753906 C 313.949219 728.753906 341.285156 704.625 346.445312 673.140625 L 560.242188 673.140625 C 565.402344 704.625 592.738281 728.753906 625.675781 728.753906 C 658.617188 728.753906 685.953125 704.625 691.113281 673.140625 L 728.988281 673.140625 L 728.988281 473.058594 L 624.078125 368.199219 L 517.265625 368.199219 L 517.265625 269.769531 L 177.703125 269.769531 L 177.703125 357.558594 L 104.921875 357.558594 L 104.921875 379.527344 L 177.703125 379.527344 L 177.703125 427.953125 L 34.488281 427.953125 L 34.488281 449.921875 L 177.703125 449.921875 L 177.703125 498.351562 " fill-opacity="1" fill-rule="nonzero"/></g><path fill="rgb(0%, 69.40918%, 78.42865%)" d="M 650.652344 523.128906 L 573.976562 523.128906 L 573.976562 446.492188 L 591.148438 446.492188 L 650.652344 505.96875 Z M 672.632812 496.871094 L 600.253906 424.527344 L 551.996094 424.527344 L 551.996094 545.097656 L 672.632812 545.097656 L 672.632812 496.871094 " fill-opacity="1" fill-rule="nonzero"/></svg>