<svg xmlns="http://www.w3.org/2000/svg" xmlns:xlink="http://www.w3.org/1999/xlink" width="1080" zoomAndPan="magnify" viewBox="0 0 810 809.999993" height="1080" preserveAspectRatio="xMidYMid meet" version="1.0"><defs><clipPath id="id1"><path d="M 215.664062 221.058594 L 586.164062 221.058594 L 586.164062 728.808594 L 215.664062 728.808594 Z M 215.664062 221.058594 " clip-rule="nonzero"/></clipPath></defs><rect x="-81" width="972" fill="rgb(100%, 100%, 100%)" y="-80.999999" height="971.999992" fill-opacity="1"/><rect x="-81" width="972" fill="rgb(100%, 100%, 100%)" y="-80.999999" height="971.999992" fill-opacity="1"/><rect x="-81" width="972" fill="rgb(100%, 100%, 100%)" y="-80.999999" height="971.999992" fill-opacity="1"/><g clip-path="url(#id1)"><path fill="rgb(0%, 69.40918%, 78.42865%)" d="M 572.210938 714.851562 L 229.515625 714.851562 L 229.515625 604.472656 C 229.515625 552.175781 255.007812 503.507812 296.144531 472.222656 L 394.695312 662.976562 C 395.886719 665.28125 398.265625 666.734375 400.863281 666.734375 C 403.460938 666.734375 405.839844 665.28125 407.03125 662.976562 L 505.601562 472.234375 C 546.726562 503.519531 572.210938 552.183594 572.210938 604.472656 Z M 336.59375 449.457031 C 339.097656 452.511719 341.839844 455.347656 344.761719 458.011719 L 392.902344 518.148438 L 367.667969 580.417969 L 307.644531 464.242188 C 316.6875 458.457031 326.382812 453.535156 336.59375 449.457031 Z M 332.292969 345.632812 C 332.292969 308.738281 363.050781 278.71875 400.863281 278.71875 C 438.675781 278.71875 469.433594 308.738281 469.433594 345.632812 L 469.433594 398.96875 C 469.433594 435.871094 438.675781 465.890625 400.863281 465.890625 C 375.125 465.890625 352.679688 451.964844 340.953125 431.445312 L 398.980469 431.445312 C 402.8125 431.445312 405.917969 428.339844 405.917969 424.5 C 405.917969 420.664062 402.8125 417.558594 398.980469 417.558594 L 335.039062 417.558594 C 333.285156 411.648438 332.292969 405.425781 332.292969 398.96875 Z M 377.21875 476.347656 C 384.714844 478.554688 392.640625 479.773438 400.863281 479.773438 C 409.085938 479.773438 417.011719 478.554688 424.507812 476.347656 L 400.863281 505.878906 Z M 425.675781 596.667969 L 400.863281 644.671875 L 376.058594 596.667969 L 400.863281 535.457031 Z M 494.105469 464.25 L 434.066406 580.425781 L 408.824219 518.148438 L 456.964844 458.011719 C 459.886719 455.347656 462.632812 452.507812 465.136719 449.453125 C 475.355469 453.535156 485.058594 458.460938 494.105469 464.25 Z M 277.328125 395.445312 L 268.917969 395.445312 C 256.882812 395.445312 247.097656 385.65625 247.097656 373.621094 C 247.097656 361.582031 256.882812 351.792969 268.917969 351.792969 L 277.328125 351.792969 Z M 524.425781 351.792969 L 532.808594 351.792969 C 544.84375 351.792969 554.628906 361.582031 554.628906 373.621094 C 554.628906 385.65625 544.84375 395.445312 532.808594 395.445312 L 524.425781 395.445312 Z M 473.164062 437.75 C 479.621094 426.230469 483.3125 413.015625 483.3125 398.96875 L 483.3125 345.632812 C 483.3125 301.078125 446.328125 264.832031 400.863281 264.832031 C 355.398438 264.832031 318.414062 301.078125 318.414062 345.632812 L 318.414062 398.96875 C 318.414062 405.375 319.261719 411.582031 320.703125 417.558594 L 291.207031 417.558594 L 291.207031 342.125 C 291.207031 283.0625 340.402344 235.011719 400.875 235.011719 C 461.351562 235.011719 510.546875 283.0625 510.546875 342.125 L 510.546875 424.5 C 510.546875 428.339844 513.652344 431.445312 517.484375 431.445312 C 521.320312 431.445312 524.425781 428.339844 524.425781 424.5 L 524.425781 409.328125 L 532.808594 409.328125 C 552.496094 409.328125 568.507812 393.308594 568.507812 373.621094 C 568.507812 353.925781 552.496094 337.910156 532.808594 337.910156 L 524.207031 337.910156 C 521.914062 273.152344 467.546875 221.128906 400.875 221.128906 C 334.207031 221.128906 279.839844 273.152344 277.546875 337.910156 L 268.917969 337.910156 C 249.230469 337.910156 233.222656 353.925781 233.222656 373.621094 C 233.222656 393.308594 249.230469 409.328125 268.917969 409.328125 L 277.328125 409.328125 L 277.328125 424.5 C 277.328125 428.339844 280.433594 431.445312 284.269531 431.445312 L 325.421875 431.445312 C 326.386719 433.589844 327.417969 435.707031 328.566406 437.753906 C 260.710938 466.15625 215.636719 532.042969 215.636719 604.472656 L 215.636719 721.792969 C 215.636719 725.632812 218.738281 728.738281 222.574219 728.738281 L 579.152344 728.738281 C 582.988281 728.738281 586.089844 725.632812 586.089844 721.792969 L 586.089844 604.472656 C 586.089844 532.050781 541.015625 466.164062 473.164062 437.75 " fill-opacity="1" fill-rule="nonzero"/></g></svg>